<?xml version="1.0" standalone="no"?>
<!DOCTYPE svg PUBLIC "-//W3C//DTD SVG 20010904//EN"
 "http://www.w3.org/TR/2001/REC-SVG-20010904/DTD/svg10.dtd">
<svg version="1.0" xmlns="http://www.w3.org/2000/svg"
 width="800.000000pt" height="784.000000pt" viewBox="0 0 800.000000 784.000000"
 preserveAspectRatio="xMidYMid meet">

<g transform="translate(0.000000,784.000000) scale(0.100000,-0.100000)"
fill="#000000" stroke="none">
<path d="M1614 7080 c-91 -13 -156 -61 -196 -145 -24 -51 -28 -73 -28 -141 0
-160 62 -260 184 -298 113 -36 238 -10 313 64 74 73 103 216 69 334 -24 81
-100 158 -171 174 -80 17 -117 20 -171 12z m151 -79 c88 -40 133 -129 122
-241 -11 -128 -74 -201 -178 -208 -112 -8 -168 19 -212 102 -18 33 -22 58 -22
131 0 80 3 95 27 136 15 25 38 53 51 62 59 38 151 46 212 18z"/>
<path d="M6227 7079 c-67 -10 -112 -34 -156 -85 -52 -59 -65 -98 -65 -209 -1
-114 17 -166 74 -223 60 -60 104 -76 210 -77 84 0 101 3 146 27 99 52 144 139
144 277 0 95 -22 161 -73 213 -67 69 -162 95 -280 77z m169 -85 c144 -75 135
-368 -12 -430 -50 -21 -147 -18 -194 6 -118 60 -146 287 -49 391 57 60 173 75
255 33z"/>
<path d="M2034 7051 c-2 -2 -4 -13 -4 -23 0 -17 11 -18 158 -18 148 0 158 1
159 19 1 17 -8 20 -100 26 -100 6 -204 4 -213 -4z"/>
<path d="M6654 7051 c-2 -2 -4 -13 -4 -23 0 -17 10 -18 158 -16 148 3 157 4
157 22 0 19 -8 20 -153 20 -85 1 -156 -1 -158 -3z"/>
<path d="M1680 6091 l0 -239 25 -4 c13 -3 27 -3 30 0 3 3 5 113 5 244 l0 238
-30 0 -30 0 0 -239z"/>
<path d="M6282 6088 l3 -243 28 -3 27 -3 0 245 0 246 -30 0 -30 0 2 -242z"/>
<path d="M2160 5795 l0 -65 -65 0 c-63 0 -65 -1 -65 -25 0 -24 2 -25 65 -25
l65 0 0 -65 c0 -63 1 -65 25 -65 24 0 25 2 25 65 l0 65 65 0 c63 0 65 1 65 25
0 24 -2 25 -65 25 l-65 0 0 65 c0 63 -1 65 -25 65 -24 0 -25 -2 -25 -65z"/>
<path d="M6780 5795 l0 -65 -65 0 c-63 0 -65 -1 -65 -25 0 -24 2 -25 65 -25
l65 0 0 -65 c0 -63 1 -65 25 -65 24 0 25 2 25 65 l0 65 65 0 c63 0 65 1 65 25
0 24 -2 25 -65 25 l-65 0 0 65 c0 63 -1 65 -25 65 -24 0 -25 -2 -25 -65z"/>
<path d="M1447 5733 c-4 -3 -7 -136 -7 -295 l0 -288 39 0 38 0 -2 246 c-2 198
0 242 10 227 7 -10 42 -67 79 -127 37 -59 86 -138 110 -175 24 -36 58 -90 76
-118 33 -52 34 -53 82 -53 l48 0 0 293 0 293 -32 -1 -33 -2 -3 -247 -2 -248
-97 153 c-229 367 -216 349 -262 349 -21 0 -41 -3 -44 -7z"/>
<path d="M6064 5731 c-6 -6 -5 -577 1 -582 2 -3 20 -3 39 -1 l34 4 -3 244 c-1
135 -1 244 1 242 1 -2 53 -84 114 -183 62 -99 130 -208 152 -242 l40 -63 49 0
49 0 0 295 0 295 -35 0 -35 0 0 -252 0 -252 -146 234 c-81 129 -153 243 -161
252 -11 12 -28 17 -55 15 -22 -1 -42 -4 -44 -6z"/>
<path d="M3955 5356 c-25 -16 -82 -49 -460 -266 -165 -95 -308 -180 -318 -189
-19 -18 -14 -51 7 -51 13 1 88 41 266 145 74 43 218 126 320 185 102 58 194
112 206 119 18 12 37 4 185 -81 528 -305 640 -368 659 -368 36 0 25 42 -18 66
-20 11 -172 99 -337 194 -165 96 -334 193 -375 217 -79 45 -102 50 -135 29z"/>
<path d="M1075 5129 c-104 -61 -197 -114 -205 -119 -12 -7 -12 -13 -2 -35 l12
-27 53 30 c116 66 372 214 375 217 7 7 -19 45 -31 44 -7 0 -97 -50 -202 -110z"/>
<path d="M6707 5216 c-18 -27 -44 -9 281 -193 127 -72 134 -75 147 -57 21 28
19 32 -27 55 -38 19 -190 107 -331 191 -26 15 -49 28 -51 28 -2 0 -11 -11 -19
-24z"/>
<path d="M2053 5134 c-8 -14 -14 -26 -12 -28 2 -2 67 -39 144 -83 77 -44 167
-97 200 -117 33 -20 65 -36 72 -36 17 0 38 41 25 49 -6 3 -54 31 -106 61 -53
30 -143 83 -201 117 l-106 61 -16 -24z"/>
<path d="M5905 5146 c-21 -14 -251 -148 -342 -198 -49 -27 -52 -31 -42 -51 7
-12 13 -24 15 -26 2 -2 100 52 218 119 207 119 214 124 204 146 -13 27 -25 30
-53 10z"/>
<path d="M1345 5086 c-11 -7 -56 -34 -100 -58 -80 -45 -297 -169 -303 -174 -6
-4 22 -44 31 -44 17 0 417 235 417 245 0 6 -6 19 -13 28 -10 15 -15 16 -32 3z"/>
<path d="M6622 5069 c-8 -12 -10 -25 -5 -29 4 -4 100 -61 212 -125 191 -110
205 -116 218 -99 19 26 13 35 -48 70 -30 17 -118 68 -197 113 -78 45 -148 84
-155 87 -7 2 -18 -5 -25 -17z"/>
<path d="M417 5066 c-73 -20 -127 -65 -162 -132 -27 -52 -30 -66 -30 -153 0
-83 4 -104 26 -151 34 -70 59 -96 122 -126 100 -46 217 -41 302 14 93 59 129
140 123 277 -4 97 -24 153 -75 207 -58 61 -206 92 -306 64z m220 -93 c53 -43
77 -95 81 -180 5 -80 -8 -132 -46 -182 -67 -90 -230 -95 -307 -10 -102 113
-75 333 48 390 33 16 57 19 115 16 62 -3 78 -8 109 -34z"/>
<path d="M7365 5067 c-137 -46 -195 -132 -195 -291 0 -135 51 -225 156 -277
68 -33 186 -33 261 0 100 44 163 150 163 275 0 183 -101 294 -273 302 -42 2
-89 -2 -112 -9z m213 -90 c63 -41 86 -94 86 -197 1 -105 -25 -167 -87 -208
-35 -23 -51 -27 -117 -27 -66 0 -82 4 -117 27 -79 52 -113 183 -79 301 12 42
26 64 57 91 48 41 62 45 150 42 53 -1 74 -7 107 -29z"/>
<path d="M2580 4774 l0 -295 36 3 36 3 0 243 c0 134 4 240 8 235 9 -10 160
-250 243 -385 l59 -98 49 0 49 0 0 295 0 295 -35 0 -35 0 -2 -247 -3 -246 -49
79 c-26 43 -96 154 -154 247 l-106 167 -48 0 -48 0 0 -296z"/>
<path d="M4920 4775 l0 -295 38 0 38 0 -2 245 c-1 135 -1 245 1 245 1 0 71
-110 155 -245 l153 -245 48 0 49 0 0 295 0 295 -35 0 -35 0 -2 -247 -3 -246
-154 246 -154 247 -49 0 -48 0 0 -295z"/>
<path d="M2817 4354 c-4 -4 -7 -236 -7 -516 l0 -508 53 -34 c28 -18 111 -66
182 -106 143 -81 313 -179 476 -277 59 -34 116 -63 127 -63 28 0 35 27 12 47
-18 16 -388 233 -397 233 -2 0 -27 15 -56 33 -29 18 -59 36 -67 40 -8 3 -71
39 -140 80 l-125 73 -5 500 c-5 493 -5 499 -25 502 -12 2 -24 0 -28 -4z"/>
<path d="M5128 3859 l-3 -501 -165 -96 c-91 -52 -268 -154 -395 -227 -175
-101 -231 -137 -233 -154 -7 -42 27 -32 170 50 79 45 249 143 378 217 129 74
251 145 271 158 l36 22 -2 509 c-2 279 -3 511 -4 516 -1 4 -12 7 -26 7 l-25 0
-2 -501z"/>
<path d="M3750 2765 l0 -295 35 0 35 0 2 245 3 245 105 -168 c57 -92 127 -202
154 -244 l49 -78 49 0 48 0 0 296 0 295 -37 -3 -38 -3 1 -247 2 -248 -50 82
c-27 46 -65 105 -82 133 -54 83 -120 187 -152 237 -28 46 -31 48 -76 48 l-48
0 0 -295z"/>
<path d="M3970 2101 c0 -219 1 -239 18 -243 41 -11 42 -6 42 243 l0 239 -30 0
-30 0 0 -239z"/>
<path d="M4470 1791 l0 -71 -65 0 c-63 0 -65 -1 -65 -25 0 -24 2 -25 65 -25
l65 0 0 -65 c0 -63 1 -65 25 -65 24 0 25 2 25 65 l0 65 65 0 c63 0 65 1 65 25
0 24 -2 25 -65 25 l-64 0 -3 68 c-3 61 -5 67 -25 70 -22 3 -23 0 -23 -67z"/>
<path d="M3750 1435 l0 -295 35 0 35 0 2 245 3 244 151 -242 151 -242 51 -3
52 -3 0 296 0 296 -37 -3 -38 -3 1 -242 c0 -133 -2 -240 -6 -238 -3 2 -73 112
-155 244 l-150 241 -47 0 -48 0 0 -295z"/>
<path d="M3380 1114 c-107 -62 -199 -115 -204 -117 -11 -4 1 -57 13 -57 10 0
392 218 408 234 14 13 6 56 -11 55 -6 0 -99 -52 -206 -115z"/>
<path d="M4356 1134 c-3 -9 -6 -19 -6 -24 0 -11 370 -230 390 -230 9 0 34 39
28 45 -4 4 -212 125 -310 181 -86 49 -93 51 -102 28z"/>
<path d="M3646 1073 c-4 -5 -93 -58 -198 -118 -105 -61 -193 -115 -195 -121
-2 -5 3 -18 10 -28 13 -18 19 -16 108 36 52 30 141 83 199 116 58 34 111 65
119 69 11 7 12 13 2 31 -12 22 -31 28 -45 15z"/>
<path d="M2760 1060 c-103 -15 -174 -72 -210 -167 -31 -83 -25 -215 13 -289
51 -101 149 -151 276 -142 115 8 201 64 245 158 17 36 21 64 21 145 0 112 -17
165 -71 219 -60 60 -174 92 -274 76z m152 -81 c139 -67 159 -319 32 -415 -35
-27 -44 -29 -124 -29 -79 0 -90 2 -123 28 -62 47 -82 97 -82 202 0 127 33 187
121 219 58 21 126 19 176 -5z"/>
<path d="M5050 1056 c-126 -28 -186 -92 -210 -225 -30 -165 47 -316 181 -355
160 -48 309 12 370 149 32 71 32 208 -1 283 -52 119 -193 181 -340 148z m143
-67 c52 -14 102 -61 123 -114 12 -34 15 -66 12 -132 -4 -76 -8 -94 -33 -131
-38 -57 -88 -82 -164 -82 -71 0 -106 12 -145 48 -47 44 -66 97 -66 187 0 121
40 189 127 220 46 17 95 18 146 4z"/>
<path d="M5480 1016 l0 -24 155 0 155 -1 0 25 0 24 -155 0 -155 0 0 -24z"/>
</g>
</svg>
